<svg xmlns="http://www.w3.org/2000/svg" xmlns:xlink="http://www.w3.org/1999/xlink" version="1.1" width="256" height="256" viewBox="0 0 256 256" xml:space="preserve">
<desc>Created with Fabric.js 1.7.22</desc>
<defs>
</defs>
<g transform="translate(128 128) scale(0.72 0.72)" style="">
	<g style="stroke: none; stroke-width: 0; stroke-dasharray: none; stroke-linecap: butt; stroke-linejoin: miter; stroke-miterlimit: 10; fill: none; fill-rule: nonzero; opacity: 1;" transform="translate(-175.05 -175.05000000000004) scale(3.89 3.89)" >
	<path d="M 1 90 c -0.264 0 -0.519 -0.104 -0.707 -0.293 c -0.205 -0.205 -0.311 -0.488 -0.29 -0.777 l 0.93 -13.146 c 0.017 -0.24 0.12 -0.467 0.29 -0.637 l 32.454 -32.455 l -6.616 -6.616 c -1.624 -1.624 -2.519 -3.783 -2.519 -6.08 c 0 -2.297 0.894 -4.457 2.519 -6.08 L 48.456 2.521 c 2.846 -2.847 7.238 -3.337 10.682 -1.192 c 12.074 7.522 22.01 17.459 29.533 29.533 l 0 0 c 2.145 3.442 1.655 7.835 -1.192 10.682 L 66.083 62.939 c -1.624 1.624 -3.783 2.518 -6.08 2.518 c -2.297 0 -4.456 -0.894 -6.079 -2.518 l -6.616 -6.616 l -6.629 6.628 c -0.152 0.152 -0.349 0.251 -0.561 0.282 l -8.784 1.299 L 30.035 73.3 c -0.064 0.436 -0.407 0.778 -0.843 0.843 l -8.768 1.3 l -1.299 8.784 c -0.031 0.212 -0.13 0.409 -0.282 0.56 l -3.99 3.99 c -0.17 0.17 -0.396 0.273 -0.637 0.29 L 1.07 89.997 C 1.047 89.999 1.023 90 1 90 z M 2.901 76.297 L 2.078 87.921 L 13.704 87.1 l 3.492 -3.493 l 1.359 -9.191 c 0.064 -0.436 0.407 -0.778 0.843 -0.843 l 8.768 -1.3 l 1.299 -8.768 c 0.064 -0.436 0.407 -0.778 0.843 -0.843 l 9.191 -1.358 l 7.102 -7.102 c 0.391 -0.391 1.023 -0.391 1.414 0 l 7.323 7.323 c 1.246 1.246 2.903 1.932 4.666 1.932 c 1.763 0 3.421 -0.686 4.667 -1.932 L 86.065 40.13 c 2.185 -2.185 2.559 -5.561 0.909 -8.21 l 0 0 C 79.614 20.107 69.893 10.386 58.08 3.026 c -2.65 -1.65 -6.026 -1.276 -8.21 0.909 L 28.475 25.33 c -1.246 1.246 -1.933 2.904 -1.933 4.667 c 0 1.763 0.686 3.42 1.933 4.666 l 7.323 7.323 c 0.391 0.391 0.391 1.023 0 1.414 L 2.901 76.297 z" style="stroke: none; stroke-width: 1; stroke-dasharray: none; stroke-linecap: butt; stroke-linejoin: miter; stroke-miterlimit: 10; fill: rgb(255,255,255); fill-rule: nonzero; opacity: 1;" transform=" matrix(1 0 0 1 0 0) " stroke-linecap="round" />
	<path d="M 62.847 34.63 c -1.916 0 -3.832 -0.729 -5.29 -2.188 c -1.414 -1.413 -2.192 -3.292 -2.192 -5.29 s 0.778 -3.877 2.192 -5.29 c 2.916 -2.917 7.661 -2.918 10.579 0 c 2.917 2.917 2.917 7.663 0 10.58 C 66.679 33.901 64.763 34.63 62.847 34.63 z M 62.847 21.674 c -1.403 0 -2.807 0.535 -3.876 1.603 c -1.036 1.036 -1.606 2.412 -1.606 3.876 s 0.57 2.841 1.606 3.876 c 2.137 2.137 5.616 2.137 7.751 0 c 2.137 -2.137 2.137 -5.615 0 -7.752 C 65.655 22.208 64.25 21.674 62.847 21.674 z" style="stroke: none; stroke-width: 1; stroke-dasharray: none; stroke-linecap: butt; stroke-linejoin: miter; stroke-miterlimit: 10; fill: rgb(255,255,255); fill-rule: nonzero; opacity: 1;" transform=" matrix(1 0 0 1 0 0) " stroke-linecap="round" />
</g>
</g>
</svg>